# xmcd
#
# Track frame offsets: 
#        150
#        21348
#        40446
#        54981
#        73373
#        95041
#        108710
#        125279
#        144187
#        159359
#        179268
#
# Disc length: 2560 seconds
#
# Revision: 0
# Processed by: cddbd v1.5.2PL0 Copyright (c) Steve Scherf et al.
# Submitted via: ExactAudioCopyFreeDBPlugin 1.0
#
DISCID=9b09fe0b
DTITLE=Elisabeth Ames and The Countrypolitans - Anytime
DYEAR=2007
DGENRE=Country
TTITLE0=Genesee
TTITLE1=Anytime
TTITLE2=Bound
TTITLE3=Last time
TTITLE4=Lonely receiver
TTITLE5=Lucky in your tears
TTITLE6=Yesterday
TTITLE7=Music to me
TTITLE8=California (Are you gone?)
TTITLE9=Blue water
TTITLE10=Country music
EXTD=
EXTT0=
EXTT1=
EXTT2=
EXTT3=
EXTT4=
EXTT5=
EXTT6=
EXTT7=
EXTT8=
EXTT9=
EXTT10=
PLAYORDER=
